# xmcd
#
# Track frame offsets: 
#        150
#        19176
#        34252
#        47728
#        64889
#        86257
#        101876
#        120904
#        140458
#        158931
#        180377
#        192242
#        212481
#        234088
#        243955
#        264879
#        278651
#
# Disc length: 3887 seconds
#
# Revision: 0
# Processed by: cddbd v1.5.2PL0 Copyright (c) Steve Scherf et al.
# Submitted via: ExactAudioCopy v1.0b3
#
DISCID=da0f2d11
DTITLE=Jeff Liberman - Jazz N' Blues
DYEAR=2003
DGENRE=Blues
TTITLE0=This Is the Moment
TTITLE1=Chameleon
TTITLE2=Inside
TTITLE3=Awakening
TTITLE4=White Room
TTITLE5=The Blues Over Carmel Bay
TTITLE6=No Safe Harbor
TTITLE7=Don't Leave Me Cold
TTITLE8=Before the Dawn
TTITLE9=The Thrill Is Gone
TTITLE10=Moonlight Dancing in Her Eyes
TTITLE11=Melancholy Me
TTITLE12=It's a 'Feel' Thing
TTITLE13=On the Edge
TTITLE14=I Shot the Sheriff
TTITLE15=Political Jam
TTITLE16=Jazz N' Blues
EXTD=
EXTT0=
EXTT1=
EXTT2=
EXTT3=
EXTT4=
EXTT5=
EXTT6=
EXTT7=
EXTT8=
EXTT9=
EXTT10=
EXTT11=
EXTT12=
EXTT13=
EXTT14=
EXTT15=
EXTT16=
PLAYORDER=
